<?xml version="1.0" encoding="UTF-8"?>
<svg version="1.1" xmlns="http://www.w3.org/2000/svg" width="225" height="225">
<path d="M0 0 C74.25 0 148.5 0 225 0 C225 74.25 225 148.5 225 225 C150.75 225 76.5 225 0 225 C0 150.75 0 76.5 0 0 Z " fill="#EF5129" transform="translate(0,0)"/>
<path d="M0 0 C13 0 13 0 18 3 C19.93531061 6.87062122 19.27192404 11.61722942 19.3125 15.875 C19.34150391 16.88175781 19.37050781 17.88851562 19.40039062 18.92578125 C19.40876953 19.89644531 19.41714844 20.86710937 19.42578125 21.8671875 C19.44036377 22.75519043 19.45494629 23.64319336 19.4699707 24.55810547 C19 27 19 27 15 31 C10.05 31 5.1 31 0 31 C0 20.77 0 10.54 0 0 Z " fill="#F9F1ED" transform="translate(201,97)"/>
<path d="M0 0 C13 0 13 0 18 4 C18.78390911 6.90539742 18.34623323 8.93336281 18 12 C17.34 12.66 16.68 13.32 16 14 C16.48855469 14.391875 16.97710937 14.78375 17.48046875 15.1875 C19.47272401 17.56386617 19.37177306 18.93603854 19.3125 22 C19.30863281 22.86625 19.30476563 23.7325 19.30078125 24.625 C19 27 19 27 17 30 C11.61483519 31.79505494 5.67646212 31 0 31 C0 20.77 0 10.54 0 0 Z " fill="#F9F1ED" transform="translate(99,97)"/>
<path d="M0 0 C0.74121094 -0.0103125 1.48242188 -0.020625 2.24609375 -0.03125 C5.77853365 0.77888799 7.18991449 1.7079973 9.5625 4.5 C10.31483493 8.15618548 10.25993004 11.7170101 10.1875 15.4375 C10.21650391 16.9215332 10.21650391 16.9215332 10.24609375 18.43554688 C10.2142209 23.17503915 10.11639801 25.72435079 7.30859375 29.65625 C4.53204313 31.520449 3.2890002 32.15974001 0 32.0625 C-0.74378906 32.06378906 -1.48757812 32.06507813 -2.25390625 32.06640625 C-5.28900002 31.2791279 -6.45322424 29.90059311 -8.4375 27.5 C-8.95507812 24.99804688 -8.95507812 24.99804688 -8.96875 22.21875 C-8.97390625 21.21199219 -8.9790625 20.20523438 -8.984375 19.16796875 C-8.96890625 18.12253906 -8.9534375 17.07710937 -8.9375 16 C-8.95296875 14.95457031 -8.9684375 13.90914062 -8.984375 12.83203125 C-8.97921875 11.82527344 -8.9740625 10.81851563 -8.96875 9.78125 C-8.96423828 8.86408203 -8.95972656 7.94691406 -8.95507812 7.00195312 C-7.95404031 2.16297409 -4.80634117 -0.06663905 0 0 Z " fill="#F9E8E1" transform="translate(150.4375,96.5)"/>
<path d="M0 0 C2.82592379 0.47659429 4.73455589 1.57175711 6.96875 3.33203125 C8.84229157 7.07911439 8.19675786 11.58350478 8.21875 15.70703125 C8.239375 16.66609375 8.26 17.62515625 8.28125 18.61328125 C8.28640625 19.53882812 8.2915625 20.464375 8.296875 21.41796875 C8.31089355 22.68713135 8.31089355 22.68713135 8.32519531 23.98193359 C7.88575051 26.8792594 6.97428877 28.22016485 4.96875 30.33203125 C1.34171974 31.54104134 -2.27142363 32.118636 -6.03125 31.33203125 C-8.56675179 29.27779294 -9.87891028 28.06843569 -10.54882812 24.83007812 C-10.5555957 23.45432617 -10.5555957 23.45432617 -10.5625 22.05078125 C-10.56765625 21.04402344 -10.5728125 20.03726563 -10.578125 19 C-10.56265625 17.95457031 -10.5471875 16.90914062 -10.53125 15.83203125 C-10.54671875 14.78660156 -10.5621875 13.74117187 -10.578125 12.6640625 C-10.57296875 11.65730469 -10.5678125 10.65054688 -10.5625 9.61328125 C-10.55798828 8.69611328 -10.55347656 7.77894531 -10.54882812 6.83398438 C-9.34873405 1.03277491 -5.56069846 -0.28010981 0 0 Z " fill="#F8E7E1" transform="translate(131.03125,96.66796875)"/>
<path d="M0 0 C2.64 0 5.28 0 8 0 C8 8.58 8 17.16 8 26 C8.66 26 9.32 26 10 26 C10 17.42 10 8.84 10 0 C12.64 0 15.28 0 18 0 C18.14509751 4.41632177 18.23400818 8.83203193 18.3125 13.25 C18.35439453 14.50425781 18.39628906 15.75851563 18.43945312 17.05078125 C18.45556641 18.25605469 18.47167969 19.46132812 18.48828125 20.703125 C18.51446533 21.81333008 18.54064941 22.92353516 18.56762695 24.06738281 C18 27 18 27 15.59838867 29.36035156 C13.08004599 30.94948897 11.9163603 31.54703807 9 31.5 C8.0409375 31.51546875 8.0409375 31.51546875 7.0625 31.53125 C3.93971491 30.72689626 2.28850247 29.24918592 0 27 C-0.56762695 24.06738281 -0.56762695 24.06738281 -0.48828125 20.703125 C-0.47216797 19.49785156 -0.45605469 18.29257813 -0.43945312 17.05078125 C-0.39755859 15.79652344 -0.35566406 14.54226562 -0.3125 13.25 C-0.28994141 11.98027344 -0.26738281 10.71054688 -0.24414062 9.40234375 C-0.18520639 6.26704227 -0.10297079 3.13411405 0 0 Z " fill="#F9EFEC" transform="translate(22,97)"/>
<path d="M0 0 C4.62 0 9.24 0 14 0 C14 2.31 14 4.62 14 7 C12.02 7 10.04 7 8 7 C8 8.65 8 10.3 8 12 C9.65 12 11.3 12 13 12 C13 13.98 13 15.96 13 18 C11.35 18 9.7 18 8 18 C8 22.29 8 26.58 8 31 C5.36 31 2.72 31 0 31 C0 20.77 0 10.54 0 0 Z " fill="#F8EEE9" transform="translate(5,97)"/>
<path d="M0 0 C3.96 0 7.92 0 12 0 C12 1.65 12 3.3 12 5 C10.35 5 8.7 5 7 5 C7 6.98 7 8.96 7 11 C8.65 11 10.3 11 12 11 C12 12.98 12 14.96 12 17 C10.35 17 8.7 17 7 17 C7 19.31 7 21.62 7 24 C8.98 24 10.96 24 13 24 C13 25.98 13 27.96 13 30 C8.71 30 4.42 30 0 30 C0 20.1 0 10.2 0 0 Z " fill="#FBFAF7" transform="translate(185,98)"/>
<path d="M0 0 C2.31 0 4.62 0 7 0 C7.66 2.97 8.32 5.94 9 9 C9.66 6.03 10.32 3.06 11 0 C12.98 0 14.96 0 17 0 C16.55516553 4.09247715 15.80837188 7.71903126 14.5 11.625 C12.59195262 17.65629124 12.2858164 23.7120392 12 30 C9.69 30 7.38 30 5 30 C4.96132812 28.71029297 4.96132812 28.71029297 4.921875 27.39453125 C4.55092875 19.66367423 3.37479843 12.96071719 0.83984375 5.64453125 C0 3 0 3 0 0 Z " fill="#FBF9F6" transform="translate(73,98)"/>
<path d="M0 0 C2.64 0 5.28 0 8 0 C8 7.92 8 15.84 8 24 C9.65 24 11.3 24 13 24 C13 26.31 13 28.62 13 31 C8.71 31 4.42 31 0 31 C0 20.77 0 10.54 0 0 Z " fill="#F9F2EE" transform="translate(60,97)"/>
<path d="M0 0 C2.64 0 5.28 0 8 0 C8 8.25 8 16.5 8 25 C9.65 25 11.3 25 13 25 C13 26.98 13 28.96 13 31 C8.71 31 4.42 31 0 31 C0 20.77 0 10.54 0 0 Z " fill="#FAF3F0" transform="translate(44,97)"/>
<path d="M0 0 C0.33 0 0.66 0 1 0 C1.33 1.98 1.66 3.96 2 6 C2.66 4.35 3.32 2.7 4 1 C6.31 1 8.62 1 11 1 C10.86722656 1.58007812 10.73445312 2.16015625 10.59765625 2.7578125 C10.42105469 3.53898437 10.24445313 4.32015625 10.0625 5.125 C9.88847656 5.89070313 9.71445313 6.65640625 9.53515625 7.4453125 C9.35855469 8.28835937 9.18195313 9.13140625 9 10 C8.773125 10.96292969 8.54625 11.92585938 8.3125 12.91796875 C7.94234116 16.56866033 8.65125419 18.77050355 9.9375 22.1875 C12 27.74576271 12 27.74576271 12 31 C9.36 31 6.72 31 4 31 C3.34 28.36 2.68 25.72 2 23 C1.67 25.31 1.34 27.62 1 30 C0.67 30 0.34 30 0 30 C0 20.1 0 10.2 0 0 Z " fill="#FAF5F2" transform="translate(170,97)"/>
<path d="M0 0 C2.31 0 4.62 0 7 0 C7.14513802 4.24964127 7.23402037 8.49864635 7.3125 12.75 C7.3753418 14.55984375 7.3753418 14.55984375 7.43945312 16.40625 C7.45556641 17.56640625 7.47167969 18.7265625 7.48828125 19.921875 C7.51446533 20.99018555 7.54064941 22.05849609 7.56762695 23.15917969 C7 26 7 26 4.59448242 28.37988281 C2 30 2 30 0 30 C-1.0803261 26.55168638 -1.03754941 23.51778656 -0.87890625 19.921875 C-0.83056641 18.76171875 -0.78222656 17.6015625 -0.73242188 16.40625 C-0.67634766 15.1996875 -0.62027344 13.993125 -0.5625 12.75 C-0.51029297 11.52796875 -0.45808594 10.3059375 -0.40429688 9.046875 C-0.27470786 6.03098519 -0.13974424 3.01543354 0 0 Z " fill="#FCFBF8" transform="translate(33,98)"/>
<path d="M0 0 C6.66666667 0 13.33333333 0 20 0 C19.67 0.99 19.34 1.98 19 3 C19 2.34 19 1.68 19 1 C17.02 1 15.04 1 13 1 C12.95101562 1.63808594 12.90203125 2.27617188 12.8515625 2.93359375 C12.77679688 3.75988281 12.70203125 4.58617188 12.625 5.4375 C12.55539063 6.26121094 12.48578125 7.08492188 12.4140625 7.93359375 C12.27742188 8.61550781 12.14078125 9.29742187 12 10 C11.01 10.495 11.01 10.495 10 11 C8.8422494 7.52674819 8.93133348 4.63932552 9 1 C6.69 1 4.38 1 2 1 C2.3609375 1.99257812 2.721875 2.98515625 3.09375 4.0078125 C6.3314603 13.33426499 7.69975145 21.04797932 7 31 C6.67 31 6.34 31 6 31 C5.938125 29.8553125 5.938125 29.8553125 5.875 28.6875 C5.23385873 25.67418287 5.23385873 25.67418287 1.9453125 24.33203125 C0.97335938 23.89246094 0.00140625 23.45289062 -1 23 C-1.02894547 19.54168414 -1.04678 16.08339928 -1.0625 12.625 C-1.07087891 11.64015625 -1.07925781 10.6553125 -1.08789062 9.640625 C-1.09111328 8.69960937 -1.09433594 7.75859375 -1.09765625 6.7890625 C-1.10289307 5.91975098 -1.10812988 5.05043945 -1.11352539 4.15478516 C-1 2 -1 2 0 0 Z " fill="#EC5931" transform="translate(71,97)"/>
<path d="M0 0 C1.65 0 3.3 0 5 0 C5 9.9 5 19.8 5 30 C3.35 30 1.7 30 0 30 C0 20.1 0 10.2 0 0 Z " fill="#FAF8F5" transform="translate(163,98)"/>
<path d="M0 0 C2.64 0 5.28 0 8 0 C8.33 10.23 8.66 20.46 9 31 C8.01 31 7.02 31 6 31 C6 21.1 6 11.2 6 1 C4.35 1 2.7 1 1 1 C1 10.9 1 20.8 1 31 C-2 28 -2 28 -2.37231445 25.51977539 C-2.3693335 24.55547607 -2.36635254 23.59117676 -2.36328125 22.59765625 C-2.36231445 21.01500977 -2.36231445 21.01500977 -2.36132812 19.40039062 C-2.34521484 18.29888672 -2.32910156 17.19738281 -2.3125 16.0625 C-2.31572266 14.96486328 -2.31894531 13.86722656 -2.32226562 12.73632812 C-2.26238286 3.81379543 -2.26238286 3.81379543 0 0 Z " fill="#E06F4D" transform="translate(162,97)"/>
<path d="M0 0 C0.99 0.66 1.98 1.32 3 2 C3.22107787 4.7885289 3.28107535 7.34653181 3.1875 10.125 C3.17396484 10.87910156 3.16042969 11.63320312 3.14648438 12.41015625 C3.11109985 14.27374127 3.05729167 16.13695978 3 18 C2.34 18.33 1.68 18.66 1 19 C1 17.02 1 15.04 1 13 C-0.98 13 -2.96 13 -5 13 C-5 10.69 -5 8.38 -5 6 C-3.35 6 -1.7 6 0 6 C0 4.02 0 2.04 0 0 Z " fill="#EA603A" transform="translate(197,109)"/>
<path d="M0 0 C1.48168945 1.11254883 1.48168945 1.11254883 3 3 C3.34057617 5.8190918 3.34057617 5.8190918 3.29296875 9.19921875 C3.28330078 10.40771484 3.27363281 11.61621094 3.26367188 12.86132812 C3.23853516 14.12396484 3.21339844 15.38660156 3.1875 16.6875 C3.17396484 17.96173828 3.16042969 19.23597656 3.14648438 20.54882812 C3.11108199 23.69964057 3.0616979 26.84961045 3 30 C2.67 30 2.34 30 2 30 C1.67 25.71 1.34 21.42 1 17 C0.67 17 0.34 17 0 17 C0 15.35 0 13.7 0 12 C-1.65 12 -3.3 12 -5 12 C-5 10.35 -5 8.7 -5 7 C-3.35 7 -1.7 7 0 7 C0 4.69 0 2.38 0 0 Z " fill="#EC4B1D" transform="translate(198,97)"/>
<path d="M0 0 C0.99 0 1.98 0 3 0 C3.22155127 2.93705131 3.42774197 5.87380363 3.625 8.8125 C3.68945312 9.64587891 3.75390625 10.47925781 3.8203125 11.33789062 C3.871875 12.14033203 3.9234375 12.94277344 3.9765625 13.76953125 C4.02893066 14.50792236 4.08129883 15.24631348 4.13525391 16.00708008 C4 18 4 18 2 21 C-1.19235662 13.20379023 -2.70247812 8.10743436 0 0 Z " fill="#EA5A34" transform="translate(179,104)"/>
<path d="M0 0 C2.23413013 3.35119519 2.23847762 4.4177755 2.1953125 8.32421875 C2.18564453 9.86625977 2.18564453 9.86625977 2.17578125 11.43945312 C2.15902344 12.51130859 2.14226563 13.58316406 2.125 14.6875 C2.11597656 15.77095703 2.10695313 16.85441406 2.09765625 17.97070312 C2.0740734 20.6473571 2.04116126 23.32356797 2 26 C1.67 26 1.34 26 1 26 C0.93941406 25.16855469 0.87882812 24.33710937 0.81640625 23.48046875 C0.73261719 22.39378906 0.64882813 21.30710937 0.5625 20.1875 C0.48128906 19.10855469 0.40007813 18.02960938 0.31640625 16.91796875 C0.09787539 13.94010095 0.09787539 13.94010095 -1 11 C-2.65 11 -4.3 11 -6 11 C-6 9.68 -6 8.36 -6 7 C-4.35 7 -2.7 7 -1 7 C-0.67 4.69 -0.34 2.38 0 0 Z " fill="#E74D21" transform="translate(20,97)"/>
<path d="M0 0 C0.99 0 1.98 0 3 0 C3 6.27 3 12.54 3 19 C2.01 19.33 1.02 19.66 0 20 C0 13.4 0 6.8 0 0 Z " fill="#E16E4F" transform="translate(209,103)"/>
<path d="M0 0 C2.69082872 0.17635452 5.32851446 0.61835921 8 1 C8 1.33 8 1.66 8 2 C5.69 2 3.38 2 1 2 C1 11.57 1 21.14 1 31 C0.01 31 -0.98 31 -2 31 C-1.83628906 30.46463623 -1.67257813 29.92927246 -1.50390625 29.37768555 C-0.89642052 26.51125942 -0.90548531 23.88748675 -0.9375 20.95703125 C-0.94523437 19.80138672 -0.95296875 18.64574219 -0.9609375 17.45507812 C-0.97382812 16.25302734 -0.98671875 15.05097656 -1 13.8125 C-1.02537737 11.42322103 -1.04645505 9.03389112 -1.0625 6.64453125 C-1.07990234 5.05668823 -1.07990234 5.05668823 -1.09765625 3.43676758 C-1 1 -1 1 0 0 Z " fill="#E64B1B" transform="translate(59,95)"/>
<path d="M0 0 C0.33 0 0.66 0 1 0 C1 6.27 1 12.54 1 19 C0.67 19 0.34 19 0 19 C0 17.35 0 15.7 0 14 C-0.66 14 -1.32 14 -2 14 C-2.28875 13.38125 -2.5775 12.7625 -2.875 12.125 C-3.93720042 9.86674235 -3.93720042 9.86674235 -6 8 C-5.01 7.34 -4.02 6.68 -3 6 C-2.34 6.33 -1.68 6.66 -1 7 C-0.67 4.69 -0.34 2.38 0 0 Z " fill="#E36D4B" transform="translate(120,103)"/>
<path d="M0 0 C3.63 0.33 7.26 0.66 11 1 C11.33 2.98 11.66 4.96 12 7 C11.01 7 10.02 7 9 7 C9.33 5.35 9.66 3.7 10 2 C7.69 2 5.38 2 3 2 C2.34 5.3 1.68 8.6 1 12 C0.67 12 0.34 12 0 12 C0 8.04 0 4.08 0 0 Z " fill="#E35328" transform="translate(171,96)"/>
<path d="M0 0 C3.66666667 0 7.33333333 0 11 0 C10.67 0.99 10.34 1.98 10 3 C10 2.34 10 1.68 10 1 C8.02 1 6.04 1 4 1 C3.95101562 1.63808594 3.90203125 2.27617188 3.8515625 2.93359375 C3.77679688 3.75988281 3.70203125 4.58617188 3.625 5.4375 C3.52058594 6.67306641 3.52058594 6.67306641 3.4140625 7.93359375 C3.27742188 8.61550781 3.14078125 9.29742187 3 10 C2.01 10.495 2.01 10.495 1 11 C-0.28317892 7.15046324 -0.06643637 4.05261865 0 0 Z " fill="#E48165" transform="translate(80,97)"/>
<path d="M0 0 C0.33 0 0.66 0 1 0 C1 3.96 1 7.92 1 12 C5.62 12 10.24 12 15 12 C15 12.33 15 12.66 15 13 C7.08 13.495 7.08 13.495 -1 14 C-1 8.80942241 -0.980503 4.90251498 0 0 Z " fill="#E94B17" transform="translate(183,116)"/>
<path d="M0 0 C0.99 0 1.98 0 3 0 C3 2.64 3 5.28 3 8 C2.01 8.33 1.02 8.66 0 9 C0 6.03 0 3.06 0 0 Z " fill="#DF6C49" transform="translate(107,114)"/>
<path d="M0 0 C0.99 0.33 1.98 0.66 3 1 C3 2.98 3 4.96 3 7 C2.01 7 1.02 7 0 7 C0 4.69 0 2.38 0 0 Z " fill="#E16E4C" transform="translate(107,102)"/>
<path d="M0 0 C0.66 0 1.32 0 2 0 C2.33 2.97 2.66 5.94 3 9 C2.01 8.67 1.02 8.34 0 8 C0 5.36 0 2.72 0 0 Z " fill="#E54D1A" transform="translate(118,117)"/>
<path d="M0 0 C2.64 0 5.28 0 8 0 C8.33 1.98 8.66 3.96 9 6 C8.01 6 7.02 6 6 6 C6.33 4.35 6.66 2.7 7 1 C4.69 1 2.38 1 0 1 C0 0.67 0 0.34 0 0 Z " fill="#E87E63" transform="translate(174,97)"/>
</svg>
